# xmcd CD database file
#
# Track frame offsets:
#	150
#	2833
#	21816
#	44658
#	62722
#	73914
#	84746
#	104836
#	107731
#	126076
#	131216
#	151466
#	153399
#	171609
#	179968
#	206162
#	228572
#	244181
#
# Disc length: 3284 seconds
#
# Revision: 1
# Processed by: cddbd v1.5.1PL0 Copyright (c) Steve Scherf et al.
# Submitted via: CDex 1.51
#
DISCID=1a0cd212
DTITLE=Joel Clemons and the Lemons - Christmas Trim
DYEAR=2003
DGENRE=Jazz
TTITLE0=Bring in the Trim
TTITLE1=Christmas Trim
TTITLE2=Deck the Halls
TTITLE3=Jingle Bells
TTITLE4=O Christmas Tree
TTITLE5=Season's Serenade
TTITLE6=Christmas Time
TTITLE7=Trim for...
TTITLE8=Jolly Old St. Nicholas
TTITLE9=Christmas Trim (reprise)
TTITLE10=Dear St. Nick
TTITLE11=Have you Ever Spent...
TTITLE12=Christmas Alone?
TTITLE13=Christmas Alone (reprise)
TTITLE14=The Holly and the Ivy
TTITLE15=Auld Lang Syne
TTITLE16=Auld Lang Syne (Mambo)
TTITLE17=Merry Christmas Everybody!
EXTD=YEAR: 2003
EXTT0=
EXTT1=
EXTT2=
EXTT3=
EXTT4=
EXTT5=
EXTT6=
EXTT7=
EXTT8=
EXTT9=
EXTT10=
EXTT11=
EXTT12=
EXTT13=
EXTT14=
EXTT15=
EXTT16=
EXTT17=
PLAYORDER=
